<?xml version="1.0" encoding="UTF-8" standalone="no"?>
<!DOCTYPE svg PUBLIC "-//W3C//DTD SVG 1.1//EN" "http://www.w3.org/Graphics/SVG/1.1/DTD/svg11.dtd">
<svg width="100%" height="100%" viewBox="0 0 1084 1182" version="1.1" xmlns="http://www.w3.org/2000/svg" xmlns:xlink="http://www.w3.org/1999/xlink" xml:space="preserve" xmlns:serif="http://www.serif.com/" style="fill-rule:evenodd;clip-rule:evenodd;stroke-linejoin:round;stroke-miterlimit:2;">
    <g transform="matrix(1,0,0,1,-1125.05,-933.046)">
        <g transform="matrix(4.16667,0,0,4.16667,0,0)">
            <path d="M342.003,240.307C307.401,263.932 289.762,307.63 301.219,350.395C315.727,404.535 371.374,436.661 425.512,422.155C469.75,410.302 499.286,370.985 500.699,327.468C494.577,363.182 468.357,393.863 431.059,403.857C379.963,417.549 327.446,387.227 313.756,336.133C304.139,300.243 316.237,263.651 342.003,240.307Z" style="fill:rgb(78,100,103);"/>
        </g>
        <g transform="matrix(4.16667,0,0,4.16667,0,0)">
            <path d="M455.423,380.319C484.619,360.382 499.505,323.511 489.836,287.424C477.594,241.739 430.638,214.628 384.954,226.871C347.626,236.872 322.703,270.048 321.511,306.77C326.676,276.632 348.8,250.743 380.274,242.311C423.39,230.758 467.705,256.342 479.258,299.458C487.372,329.744 477.163,360.621 455.423,380.319Z" style="fill:rgb(59,190,179);"/>
        </g>
        <g transform="matrix(4.16667,0,0,4.16667,0,0)">
            <g transform="matrix(0.24,0,0,0.24,40.9066,0)">
                <text x="938.087px" y="2112.58px" style="font-family:'CachetStd-Bold', 'Cachet Std', sans-serif;font-weight:700;font-size:229.167px;fill:rgb(78,100,103);">DEJAKANY</text>
            </g>
        </g>
        <g transform="matrix(4.16667,0,0,4.16667,0,0)">
            <path d="M404.968,342.235L404.968,358.183C404.968,374.123 395.436,387.403 383.706,387.403C372.195,387.403 362.673,374.123 362.673,358.183L362.673,338.47C369.537,337.147 374.851,330.938 374.851,323.42C374.851,315.007 367.988,308.145 359.576,308.145C351.159,308.145 344.079,315.007 344.079,323.42C344.079,330.938 349.394,337.147 356.482,338.47L356.482,358.183C356.482,377.658 368.651,393.38 383.706,393.38C398.763,393.38 411.168,377.658 411.168,358.183L411.168,342.235C417.358,341.35 423.563,338.028 429.089,332.275C429.979,331.386 430.208,330.283 429.979,329.173C437.288,320.097 441.715,307.923 441.715,298.622C441.715,284.231 434.851,282.687 423.337,280.245C422.673,278.917 421.128,277.814 419.353,277.814C416.92,277.814 414.929,279.798 414.929,282.014C414.929,284.231 416.92,286.005 419.353,286.005C420.455,286.005 421.347,285.78 422.009,285.116C433.307,287.55 436.399,288.214 436.399,298.622C436.399,306.817 432.195,317.884 425.775,325.858C424.664,325.858 423.563,326.301 422.898,327.182C419.575,330.722 414.266,334.929 408.062,334.929C401.862,334.929 396.772,330.722 393.445,327.182C392.564,326.301 391.684,325.858 390.573,325.858C384.148,317.884 379.949,306.817 379.949,298.622C379.949,288.214 382.82,287.55 394.109,285.116C394.999,285.78 395.882,286.005 396.772,286.005C399.206,286.005 401.199,284.231 401.199,282.014C401.199,279.798 399.206,277.814 396.772,277.814C394.999,277.814 393.67,278.917 392.782,280.245C381.268,282.687 374.409,284.231 374.409,298.622C374.409,307.923 378.841,320.313 386.148,329.173C386.148,330.283 386.356,331.386 387.25,332.275C392.564,338.028 398.763,341.35 404.968,342.235Z" style="fill:rgb(86,106,109);"/>
        </g>
    </g>
</svg>
